<?xml version="1.0" encoding="iso-8859-1"?>
<!-- Generator: Adobe Illustrator 19.0.0, SVG Export Plug-In . SVG Version: 6.00 Build 0)  -->
<svg version="1.1" id="Capa_1" xmlns="http://www.w3.org/2000/svg" xmlns:xlink="http://www.w3.org/1999/xlink" x="0px" y="0px"
	 viewBox="0 0 512.002 512.002" style="enable-background:new 0 0 512.002 512.002;" xml:space="preserve">
<g>
	<g>
		<path d="M309.465,343.961c-2.604-7.194-9.234-11.842-16.889-11.842h-73.149c0,0,0,0-0.001,0c-7.654,0-14.284,4.648-16.891,11.842
			c-2.614,7.22-0.49,15.064,5.412,19.986l17.028,14.196c8.989,7.496,20.006,11.242,31.026,11.242
			c11.017,0,22.038-3.748,31.026-11.242l17.026-14.196C309.955,359.026,312.08,351.18,309.465,343.961z M294.449,352.425
			l-17.026,14.195c-12.412,10.349-30.43,10.349-42.842,0l-17.028-14.196c-1.423-1.187-1.184-2.613-0.914-3.357
			c0.264-0.729,0.978-1.951,2.788-1.951h73.149c1.811,0,2.523,1.222,2.787,1.95C295.632,349.813,295.873,351.238,294.449,352.425z"
			/>
	</g>
</g>
<g>
	<g>
		<path d="M199.887,256.516c-4.143,0-7.5,3.358-7.5,7.5v8.016c0,9.125-7.423,16.548-16.548,16.548s-16.549-7.423-16.549-16.548
			v-8.016c0-9.125,7.424-16.548,16.549-16.548c4.143,0,7.5-3.358,7.5-7.5c0-4.142-3.357-7.5-7.5-7.5
			c-17.396,0-31.549,14.152-31.549,31.548v8.016c0,17.396,14.152,31.548,31.549,31.548c17.396,0,31.548-14.152,31.548-31.548v-8.016
			C207.387,259.874,204.03,256.516,199.887,256.516z"/>
	</g>
</g>
<g>
	<g>
		<path d="M360.21,256.516c-4.143,0-7.5,3.358-7.5,7.5v8.016c0,9.125-7.424,16.548-16.549,16.548s-16.548-7.423-16.548-16.548
			v-8.016c0-9.125,7.423-16.548,16.548-16.548c4.143,0,7.5-3.358,7.5-7.5c0-4.142-3.357-7.5-7.5-7.5
			c-17.396,0-31.548,14.152-31.548,31.548v8.016c0,17.396,14.152,31.548,31.548,31.548c17.397,0.001,31.549-14.152,31.549-31.548
			v-8.016C367.71,259.875,364.353,256.516,360.21,256.516z"/>
	</g>
</g>
<g>
	<g>
		<path d="M477.432,175.323h19.052c2.31,0,4.49-1.064,5.911-2.884c1.422-1.82,1.925-4.194,1.365-6.435
			c-0.465-1.857-11.817-45.651-56.028-84.797c-0.773-8.985-4.874-17.333-11.744-23.57c-8.655-7.856-20.205-11.083-31.702-8.856
			c-1.021,0.198-2.314,0.468-3.831,0.816c-10.703-5.289-22.093-9.874-34.01-13.676l7.086-7.085c1.65-1.65,2.438-3.976,2.131-6.29
			c-0.307-2.314-1.674-4.354-3.698-5.516C370.752,16.334,341.887,0,304.095,0c-20.501,0-35.117,6.073-43.77,11.167
			c-2.709,1.595-5.941,1.595-8.65,0C243.023,6.073,228.407,0,207.906,0c-37.792,0-66.657,16.334-67.867,17.029
			c-2.024,1.163-3.392,3.202-3.698,5.516c-0.308,2.314,0.48,4.64,2.131,6.29l7.086,7.085c-11.917,3.802-23.307,8.387-34.01,13.676
			c-1.518-0.349-2.81-0.618-3.831-0.816c-11.493-2.229-23.048,0.999-31.702,8.856c-6.87,6.237-10.971,14.585-11.744,23.57
			c-44.212,39.146-55.564,82.94-56.028,84.797c-0.56,2.24-0.057,4.614,1.365,6.435c1.421,1.82,3.602,2.884,5.911,2.884h19.052
			C0.415,238.847,0,316.654,0,320.129c0,2.411,1.159,4.675,3.114,6.084c1.956,1.409,4.47,1.794,6.758,1.031l14.531-4.844
			c1.259,22.141,6.983,75.136,32.97,114.115c1.104,1.655,2.819,2.804,4.77,3.194c1.948,0.392,3.977-0.01,5.631-1.114l17.758-11.838
			c8.79,12.738,30.614,41.054,62.4,60.126c2.952,1.772,6.729,1.305,9.162-1.128l11.443-11.444
			c12.772,9.13,46.545,30.929,86.079,37.56c0.034,0.006,0.068,0.012,0.103,0.018c0.016,0.003,0.075,0.01,0.089,0.012
			c0.388,0.062,0.782,0.1,1.184,0.1c0.003,0,0.006-0.001,0.009-0.001c0.003,0,0.006,0.001,0.009,0.001
			c0.401,0,0.796-0.037,1.184-0.1c0.014-0.002,0.157-0.024,0.192-0.03c39.533-6.631,73.307-28.429,86.079-37.56l11.443,11.444
			c2.433,2.433,6.211,2.899,9.162,1.128c31.786-19.072,53.61-47.388,62.4-60.126l17.758,11.838c1.655,1.104,3.684,1.504,5.631,1.114
			c1.95-0.39,3.666-1.539,4.77-3.194c25.986-38.979,31.711-91.974,32.97-114.115l14.531,4.844c2.289,0.763,4.801,0.378,6.758-1.031
			c1.955-1.41,3.114-3.674,3.114-6.084C512,316.654,511.586,238.847,477.432,175.323z M407.141,63.506
			c6.555-1.272,13.145,0.462,18.199,4.752c-2.484-0.035-5.152,0.158-8.006,0.589c-6.595,0.995-15.179,4.384-24.171,9.544
			c-3.592,2.062-4.833,6.646-2.771,10.238c2.063,3.594,6.648,4.833,10.238,2.772c7.309-4.194,14.212-7.009,18.94-7.722
			c6.824-1.03,10.639-0.004,11.934,1.299c0.936,0.942,1.063,2.695,0.969,4.166c-2.58,21.325-12.179,49.426-28.738,70.569
			c-10.058-20.684-20.766-35.844-30.855-46.931c1.229-1.212,2.472-2.411,3.735-3.574c3.048-2.805,3.244-7.55,0.439-10.598
			c-2.805-3.047-7.549-3.244-10.598-0.439c-1.44,1.325-2.862,2.687-4.261,4.071c-1.843-1.62-3.645-3.106-5.397-4.469
			c-3.887-3.023-8.249-5.323-13.071-6.91C373.179,71.32,399.062,65.073,407.141,63.506z M350.125,362.794
			c-4.143,0-7.5,3.358-7.5,7.5c0,25.522-20.563,46.286-45.838,46.286c-10.438,0-20.273-3.461-28.44-10.009
			c-7.268-5.829-17.424-5.829-24.693,0c-8.167,6.548-18.002,10.01-28.44,10.01c-25.275,0-45.838-20.764-45.838-46.286
			c0-4.142-3.357-7.5-7.5-7.5s-7.5,3.358-7.5,7.5c0,21.047,10.589,39.646,26.679,50.685c-20.895-7.495-41.689-18.598-59.673-31.985
			c-18.514-13.78-32.039-28.939-34.459-38.621c-3.507-14.026-1.968-60.645,10.044-111.695c8.24-35.02,27.959-98.354,67.445-129.066
			c21.09-16.403,64.9,3.171,84.089,14.344v11.801c0,4.142,3.357,7.5,7.5,7.5s7.5-3.358,7.5-7.5v-11.805
			c19.175-11.188,62.953-30.777,84.089-14.34c39.486,30.712,59.205,94.046,67.445,129.066
			c12.012,51.05,13.551,97.669,10.044,111.695c-2.42,9.681-15.945,24.84-34.459,38.62c-17.984,13.386-38.778,24.49-59.673,31.985
			c16.09-11.039,26.679-29.638,26.679-50.685C357.625,366.152,354.268,362.794,350.125,362.794z M311.645,429.724
			c-7.31,16.266-23.576,27.195-42.198,27.195h-26.893c-18.663,0-34.911-10.921-42.209-27.198c4.761,1.209,9.74,1.859,14.868,1.859
			c13.887,0,26.966-4.602,37.823-13.307c1.746-1.398,4.182-1.399,5.928,0c10.857,8.705,23.937,13.307,37.823,13.307
			C301.912,431.58,306.887,430.931,311.645,429.724z M161.74,46.811c2.591-0.69,4.615-2.712,5.311-5.301s-0.044-5.353-1.939-7.249
			l-8.535-8.535C167.123,21.284,185.923,15,207.906,15c17.122,0,29.113,4.945,36.158,9.092c7.362,4.337,16.511,4.337,23.873,0
			C274.982,19.945,286.973,15,304.095,15c21.878,0,40.733,6.296,51.316,10.741l-8.521,8.521c-1.896,1.896-2.635,4.659-1.939,7.249
			c0.696,2.59,2.72,4.611,5.311,5.301c9.82,2.619,19.311,5.779,28.378,9.438c-15.641,5.844-36.088,15.729-57.092,32.127
			c-9.512,0.574-20.125,2.914-31.808,7.032C274.852,100.657,262.174,107.454,256,111c-6.174-3.546-18.852-10.343-33.739-15.591
			c-11.683-4.119-22.296-6.459-31.809-7.033c-21.003-16.398-41.45-26.283-57.091-32.127C142.429,52.591,151.92,49.43,161.74,46.811z
			 M104.86,63.506c8.079,1.566,33.961,7.813,63.414,27.357c-4.822,1.587-9.184,3.888-13.071,6.911
			c-1.751,1.362-3.553,2.848-5.396,4.468c-20.489-20.282-42.527-31.492-55.14-33.395c-2.854-0.431-5.521-0.624-8.005-0.589
			C91.714,63.97,98.302,62.237,104.86,63.506z M80.497,84.978c1.295-1.303,5.106-2.328,11.934-1.299
			c8.267,1.247,27.604,10.237,46.697,29.097c-10.091,11.088-20.801,26.249-30.861,46.937c-16.56-21.143-26.159-49.243-28.739-70.568
			C79.434,87.674,79.56,85.922,80.497,84.978z M482.824,304.998c-2.29-0.763-4.802-0.379-6.758,1.031
			c-1.955,1.41-3.114,3.674-3.114,6.084c0,0.667-0.323,64.21-26.837,109.713L428.5,410.083c-1.706-1.138-3.802-1.527-5.806-1.077
			c-2.001,0.45-3.73,1.7-4.786,3.458c-0.22,0.368-21.518,35.435-56.621,58.458l-11.805-11.806c-2.704-2.702-7.005-2.941-9.989-0.553
			c-0.381,0.305-38.39,30.367-83.492,38.313c-44.975-7.927-83.113-38.01-83.492-38.313c-2.986-2.388-7.287-2.149-9.989,0.553
			l-11.805,11.805c-34.999-22.966-56.402-58.093-56.621-58.458c-1.056-1.759-2.785-3.008-4.786-3.458
			c-2.003-0.451-4.1-0.06-5.806,1.077l-17.615,11.743C39.425,376.393,39.05,312.777,39.049,312.113c0-2.411-1.159-4.675-3.114-6.084
			c-1.957-1.41-4.471-1.793-6.758-1.031L15.4,309.59c1.443-24.93,8.08-89.054,38.542-137.792c1.444-2.312,1.521-5.226,0.199-7.611
			c-1.321-2.385-3.833-3.864-6.56-3.864H25.984c5.021-12.8,16.707-36.88,40.097-60.234c4.623,24.196,16.421,53.575,35.353,74.821
			c-7.01,16.861-13.528,36.784-19.069,60.334c-12.045,51.191-14.54,100.587-9.995,118.768c3.357,13.43,17.957,30.566,40.056,47.015
			c22.64,16.852,49.49,30.32,75.784,38.06c10.289,19.783,30.876,32.832,54.345,32.832h26.893c23.418,0,44.031-13.056,54.337-32.83
			c26.297-7.74,53.15-21.208,75.792-38.062c22.099-16.449,36.698-33.585,40.056-47.015c4.545-18.182,2.05-67.578-9.995-118.769
			c-5.541-23.55-12.059-43.473-19.069-60.334c18.932-21.246,30.73-50.625,35.353-74.821c23.393,23.356,35.079,47.439,40.097,60.234
			h-21.598c-2.727,0-5.238,1.479-6.56,3.864c-1.322,2.385-1.245,5.299,0.199,7.611c30.462,48.738,37.099,112.863,38.542,137.792
			L482.824,304.998z"/>
	</g>
</g>
<g>
	<g>
		<path d="M256,160.322c-4.143,0-7.5,3.358-7.5,7.5v40.081c0,4.142,3.358,7.5,7.5,7.5c4.143,0,7.5-3.358,7.5-7.5v-40.081
			C263.5,163.68,260.143,160.322,256,160.322z"/>
	</g>
</g>
<g>
</g>
<g>
</g>
<g>
</g>
<g>
</g>
<g>
</g>
<g>
</g>
<g>
</g>
<g>
</g>
<g>
</g>
<g>
</g>
<g>
</g>
<g>
</g>
<g>
</g>
<g>
</g>
<g>
</g>
</svg>
